<?xml version="1.0" encoding="UTF-8" standalone="no"?><!DOCTYPE svg PUBLIC "-//W3C//DTD SVG 1.1//EN" "http://www.w3.org/Graphics/SVG/1.1/DTD/svg11.dtd"><svg width="100%" height="100%" viewBox="0 0 32 32" version="1.1" xmlns="http://www.w3.org/2000/svg" xmlns:xlink="http://www.w3.org/1999/xlink" xml:space="preserve" style="fill-rule:evenodd;clip-rule:evenodd;stroke-linejoin:round;stroke-miterlimit:1.41421;"><path id="XMLID_223_" d="M27.414,24.586l-5.077,-5.077c1.049,-1.581 1.663,-3.474 1.663,-5.509c0,-5.514 -4.486,-10 -10,-10c-5.514,0 -10,4.486 -10,10c0,5.514 4.486,10 10,10c2.035,0 3.928,-0.614 5.509,-1.663l5.077,5.077c0.78,0.781 2.048,0.781 2.828,0c0.781,-0.781 0.781,-2.047 0,-2.828Zm-20.414,-10.586c0,-3.86 3.14,-7 7,-7c3.86,0 7,3.14 7,7c0,3.86 -3.14,7 -7,7c-3.86,0 -7,-3.14 -7,-7Z" style="fill:#969696;fill-rule:nonzero;"/></svg>